<?xml version="1.0" standalone="no"?>
<!DOCTYPE svg PUBLIC "-//W3C//DTD SVG 20010904//EN"
 "http://www.w3.org/TR/2001/REC-SVG-20010904/DTD/svg10.dtd">
<svg version="1.0" xmlns="http://www.w3.org/2000/svg"
 width="512.000000pt" height="512.000000pt" viewBox="0 0 512.000000 512.000000"
 preserveAspectRatio="xMidYMid meet">

<g transform="translate(0.000000,512.000000) scale(0.100000,-0.100000)"
fill="#000000" stroke="none">
<path d="M3040 5107 c-49 -16 -133 -102 -148 -153 -7 -26 -12 -108 -12 -217
l0 -176 -47 27 c-26 14 -68 31 -93 38 -43 10 -47 15 -87 90 -54 100 -138 183
-220 215 l-58 24 -555 0 -555 0 -67 -32 c-93 -44 -151 -100 -196 -191 l-37
-76 -3 -331 -3 -332 -52 -23 c-63 -29 -125 -89 -157 -155 -34 -69 -35 -198 -2
-265 35 -71 75 -114 144 -150 59 -32 71 -34 187 -39 l125 -6 12 -65 c24 -128
85 -260 163 -351 18 -22 31 -42 29 -44 -2 -3 -144 -59 -316 -124 -171 -66
-338 -134 -371 -150 -116 -59 -227 -173 -291 -300 -29 -59 -190 -538 -190
-568 0 -34 43 -73 80 -73 56 0 73 30 150 271 69 215 119 338 157 386 17 22 18
-13 15 -838 l-2 -862 -108 6 c-62 2 -126 11 -151 21 -101 37 -179 126 -207
235 -21 84 -15 117 57 337 32 99 59 194 59 210 0 37 -36 74 -72 74 -56 0 -73
-29 -143 -242 -94 -283 -97 -372 -19 -527 67 -134 207 -238 356 -263 l65 -12
5 -88 c10 -161 91 -283 236 -351 l67 -32 1215 0 1215 0 67 32 c92 43 151 101
194 189 31 62 37 86 42 162 l5 88 65 12 c195 33 362 195 403 389 25 121 16
157 -192 780 -105 318 -204 607 -220 641 -62 139 -174 259 -300 323 -33 16
-200 84 -371 150 -172 65 -314 121 -316 124 -2 2 11 22 29 44 78 91 139 223
163 351 l12 65 42 3 42 3 0 -57 c0 -87 18 -133 75 -189 56 -57 102 -75 189
-75 l56 0 0 -95 c0 -88 2 -98 25 -120 42 -43 66 -35 260 95 l180 120 143 0
c138 0 144 1 167 25 33 32 33 78 0 110 -24 25 -27 25 -194 25 l-169 0 -121
-80 c-67 -44 -124 -80 -126 -80 -3 0 -5 25 -5 55 0 46 -4 60 -25 80 -22 23
-31 25 -124 25 -55 0 -111 5 -124 11 -32 15 -47 49 -47 107 0 47 0 47 51 71
64 29 127 91 160 156 33 69 34 197 2 268 -28 61 -110 140 -168 162 l-45 18 0
448 c0 307 3 456 11 472 6 14 22 30 36 36 17 8 283 11 913 11 630 0 896 -3
913 -11 14 -6 30 -22 36 -36 16 -34 16 -1632 0 -1666 -20 -45 -40 -47 -400
-47 l-340 0 -24 -25 c-33 -32 -33 -78 0 -110 l24 -25 352 0 c247 0 364 4 393
12 26 8 60 31 91 63 32 31 55 65 63 91 17 59 17 1689 0 1746 -6 22 -31 62 -55
88 -76 85 -12 80 -1057 79 -641 -1 -932 -4 -956 -12z m-807 -1103 c110 -80
214 -124 380 -159 l29 -6 -4 -257 c-4 -251 -4 -259 -32 -337 -72 -206 -223
-354 -426 -417 -112 -34 -265 -32 -375 6 -202 69 -340 208 -411 411 -28 78
-28 86 -32 336 l-4 257 194 5 c135 3 211 9 253 21 80 22 228 96 290 145 28 22
56 40 63 40 7 1 40 -20 75 -45z m-1033 -324 l0 -160 -93 0 c-119 0 -171 23
-204 90 -13 24 -23 56 -23 70 0 14 10 46 23 70 33 67 85 90 204 90 l93 0 0
-160z m1830 138 c48 -25 90 -89 90 -138 0 -14 -10 -46 -22 -70 -34 -67 -86
-90 -205 -90 l-93 0 0 160 0 160 93 0 c76 0 101 -4 137 -22z m-1508 -1175 c4
-97 9 -129 31 -180 l25 -63 -448 -2 c-498 -3 -477 -7 -367 60 41 25 713 295
748 301 4 1 9 -52 11 -116z m1313 -18 c336 -129 400 -157 455 -204 l32 -26
-451 3 -450 2 16 38 c30 72 43 138 43 231 0 70 3 92 13 88 6 -2 161 -62 342
-132z m-1050 44 c59 -19 93 -22 215 -22 147 0 146 0 304 50 18 6 19 1 14 -63
-5 -74 -31 -142 -74 -199 l-26 -35 -214 0 -213 0 -27 28 c-43 45 -76 127 -82
205 -5 65 -4 70 14 64 10 -3 51 -16 89 -28z m1639 -424 c19 -38 118 -324 222
-635 166 -500 188 -572 188 -630 0 -110 -45 -204 -128 -267 -63 -49 -118 -65
-238 -70 l-108 -6 -2 862 c-3 825 -2 860 15 838 9 -12 33 -53 51 -92z m-224
-805 l0 -800 -1200 0 -1200 0 0 800 0 800 1200 0 1200 0 0 -800z m158 -1032
c-7 -107 -48 -176 -133 -221 l-40 -22 -1185 0 c-1137 0 -1186 1 -1220 19 -89
47 -131 115 -138 224 l-5 72 1363 0 1363 0 -5 -72z"/>
<path d="M1785 3175 c-29 -28 -32 -70 -10 -102 62 -88 388 -88 450 0 22 32 19
74 -10 102 -28 29 -58 31 -111 9 -23 -10 -66 -17 -104 -17 -38 0 -81 7 -104
17 -53 22 -83 20 -111 -9z"/>
<path d="M1904 1746 c-64 -20 -131 -72 -169 -129 -108 -164 -48 -380 130 -468
41 -20 65 -24 135 -24 70 0 94 4 135 24 63 32 124 93 156 156 35 72 35 198 0
270 -32 63 -93 125 -155 155 -60 28 -171 36 -232 16z m160 -160 c65 -27 106
-107 92 -181 -9 -48 -73 -112 -120 -121 -59 -10 -103 3 -146 46 -125 125 11
324 174 256z"/>
<path d="M4022 4536 c-13 -18 -41 -138 -100 -433 -45 -224 -82 -418 -82 -431
0 -33 43 -72 80 -72 66 0 69 8 158 455 45 226 82 420 82 431 0 12 -9 33 -21
48 -28 36 -89 37 -117 2z"/>
<path d="M3423 4257 c-128 -128 -143 -146 -143 -177 0 -31 15 -49 143 -177
125 -125 147 -143 175 -143 44 0 82 38 82 81 0 27 -16 48 -102 135 l-102 104
102 104 c86 87 102 108 102 135 0 43 -38 81 -82 81 -28 0 -50 -18 -175 -143z"/>
<path d="M4345 4375 c-16 -15 -25 -35 -25 -56 0 -27 16 -48 102 -135 l102
-104 -102 -104 c-86 -87 -102 -108 -102 -135 0 -43 38 -81 82 -81 28 0 50 18
175 143 128 128 143 146 143 177 0 31 -15 49 -143 177 -125 125 -147 143 -175
143 -22 0 -41 -9 -57 -25z"/>
</g>
</svg>
